<svg xmlns="http://www.w3.org/2000/svg" xmlns:xlink="http://www.w3.org/1999/xlink" width="101" zoomAndPan="magnify" viewBox="0 0 75.75 75.749997" height="101" preserveAspectRatio="xMidYMid meet" version="1.0"><defs><clipPath id="7b29d84293"><path d="M 0 0 L 74.753906 0 L 74.753906 74.753906 L 0 74.753906 Z M 0 0 " clip-rule="nonzero"/></clipPath><clipPath id="745e849a3c"><path d="M 20.054688 14.800781 L 54.441406 14.800781 L 54.441406 56 L 20.054688 56 Z M 20.054688 14.800781 " clip-rule="nonzero"/></clipPath><clipPath id="bbd9e01eb0"><path d="M 21 54 L 29 54 L 29 58.90625 L 21 58.90625 Z M 21 54 " clip-rule="nonzero"/></clipPath><clipPath id="3ee2322d42"><path d="M 46 54 L 53 54 L 53 58.90625 L 46 58.90625 Z M 46 54 " clip-rule="nonzero"/></clipPath><clipPath id="767e5aa0de"><path d="M 20.054688 23 L 54.441406 23 L 54.441406 25 L 20.054688 25 Z M 20.054688 23 " clip-rule="nonzero"/></clipPath><clipPath id="6fc7d27be5"><path d="M 4.875 19.871094 L 71.40625 19.871094 L 71.40625 53.511719 L 4.875 53.511719 Z M 4.875 19.871094 " clip-rule="nonzero"/></clipPath></defs><g clip-path="url(#7b29d84293)"><path fill="#b30753" d="M 37.386719 74.777344 C 16.734375 74.777344 0 57.929688 0 37.386719 C 0 16.847656 16.734375 0 37.386719 0 C 58.042969 0 74.777344 16.734375 74.777344 37.386719 C 74.777344 58.042969 57.929688 74.777344 37.386719 74.777344 Z M 37.386719 2.308594 C 18 2.308594 2.308594 18 2.308594 37.386719 C 2.308594 56.773438 18 72.46875 37.386719 72.46875 C 56.773438 72.46875 72.46875 56.773438 72.46875 37.386719 C 72.46875 18 56.660156 2.308594 37.386719 2.308594 Z M 37.386719 2.308594 " fill-opacity="1" fill-rule="nonzero"/></g><path fill="#b30753" d="M 37.394531 43.523438 C 36.132812 43.523438 35.101562 42.496094 35.101562 41.234375 C 35.101562 40.953125 35.328125 40.730469 35.609375 40.730469 C 35.886719 40.730469 36.113281 40.953125 36.113281 41.234375 C 36.113281 41.941406 36.6875 42.515625 37.394531 42.515625 C 38.101562 42.515625 38.675781 41.941406 38.675781 41.234375 C 38.675781 40.3125 38.222656 40.164062 37.277344 39.9375 C 36.359375 39.71875 35.101562 39.421875 35.101562 37.660156 C 35.101562 36.398438 36.132812 35.367188 37.394531 35.367188 C 38.660156 35.367188 39.6875 36.398438 39.6875 37.660156 C 39.6875 37.9375 39.460938 38.164062 39.183594 38.164062 C 38.902344 38.164062 38.675781 37.9375 38.675781 37.660156 C 38.675781 36.953125 38.101562 36.378906 37.394531 36.378906 C 36.6875 36.378906 36.113281 36.953125 36.113281 37.660156 C 36.113281 38.582031 36.566406 38.730469 37.511719 38.957031 C 38.429688 39.175781 39.6875 39.472656 39.6875 41.234375 C 39.6875 42.496094 38.660156 43.523438 37.394531 43.523438 Z M 37.394531 43.523438 " fill-opacity="1" fill-rule="nonzero"/><path fill="#b30753" d="M 37.394531 44.226562 C 37.117188 44.226562 36.890625 44 36.890625 43.722656 L 36.890625 35.171875 C 36.890625 34.894531 37.117188 34.667969 37.394531 34.667969 C 37.671875 34.667969 37.898438 34.894531 37.898438 35.171875 L 37.898438 43.722656 C 37.898438 44 37.671875 44.226562 37.394531 44.226562 Z M 37.394531 44.226562 " fill-opacity="1" fill-rule="nonzero"/><g clip-path="url(#745e849a3c)"><path fill="#b30753" d="M 52.363281 55.472656 L 22.429688 55.472656 C 21.121094 55.472656 20.058594 54.410156 20.058594 53.105469 L 20.058594 17.183594 C 20.058594 15.875 21.121094 14.8125 22.429688 14.8125 L 52.363281 14.8125 C 53.667969 14.8125 54.730469 15.875 54.730469 17.183594 L 54.730469 53.105469 C 54.730469 54.410156 53.667969 55.472656 52.363281 55.472656 Z M 22.429688 15.824219 C 21.679688 15.824219 21.070312 16.433594 21.070312 17.183594 L 21.070312 53.105469 C 21.070312 53.855469 21.679688 54.464844 22.429688 54.464844 L 52.363281 54.464844 C 53.109375 54.464844 53.722656 53.855469 53.722656 53.105469 L 53.722656 17.183594 C 53.722656 16.433594 53.109375 15.824219 52.363281 15.824219 Z M 22.429688 15.824219 " fill-opacity="1" fill-rule="nonzero"/></g><g clip-path="url(#bbd9e01eb0)"><path fill="#b30753" d="M 26.097656 59.242188 L 23.582031 59.242188 C 22.667969 59.242188 21.921875 58.496094 21.921875 57.582031 L 21.921875 54.96875 C 21.921875 54.691406 22.148438 54.464844 22.429688 54.464844 C 22.707031 54.464844 22.933594 54.691406 22.933594 54.96875 L 22.933594 57.582031 C 22.933594 57.941406 23.222656 58.230469 23.582031 58.230469 L 26.097656 58.230469 C 26.320312 58.230469 26.523438 58.089844 26.777344 57.40625 L 27.75 54.792969 C 27.847656 54.53125 28.140625 54.398438 28.398438 54.496094 C 28.660156 54.59375 28.792969 54.882812 28.695312 55.144531 L 27.726562 57.757812 C 27.558594 58.199219 27.171875 59.242188 26.097656 59.242188 Z M 26.097656 59.242188 " fill-opacity="1" fill-rule="nonzero"/></g><g clip-path="url(#3ee2322d42)"><path fill="#b30753" d="M 51.210938 59.242188 L 48.695312 59.242188 C 47.621094 59.242188 47.234375 58.199219 47.070312 57.757812 L 46.097656 55.144531 C 46 54.882812 46.132812 54.59375 46.394531 54.496094 C 46.65625 54.398438 46.945312 54.53125 47.042969 54.792969 L 48.015625 57.40625 C 48.269531 58.089844 48.472656 58.230469 48.695312 58.230469 L 51.210938 58.230469 C 51.570312 58.230469 51.863281 57.9375 51.863281 57.582031 L 51.863281 54.96875 C 51.863281 54.691406 52.085938 54.464844 52.367188 54.464844 C 52.644531 54.464844 52.871094 54.691406 52.871094 54.96875 L 52.871094 57.582031 C 52.871094 58.496094 52.125 59.242188 51.210938 59.242188 Z M 51.210938 59.242188 " fill-opacity="1" fill-rule="nonzero"/></g><g clip-path="url(#767e5aa0de)"><path fill="#b30753" d="M 54.226562 24.429688 L 20.5625 24.429688 C 20.285156 24.429688 20.058594 24.203125 20.058594 23.925781 C 20.058594 23.644531 20.285156 23.421875 20.5625 23.421875 L 54.226562 23.421875 C 54.503906 23.421875 54.730469 23.644531 54.730469 23.925781 C 54.730469 24.203125 54.503906 24.429688 54.226562 24.429688 Z M 54.226562 24.429688 " fill-opacity="1" fill-rule="nonzero"/></g><path fill="#b30753" d="M 26.152344 22.304688 C 24.671875 22.304688 23.46875 21.101562 23.46875 19.621094 C 23.46875 18.144531 24.671875 16.941406 26.152344 16.941406 C 27.628906 16.941406 28.832031 18.144531 28.832031 19.621094 C 28.832031 21.101562 27.628906 22.304688 26.152344 22.304688 Z M 26.152344 17.949219 C 25.230469 17.949219 24.480469 18.699219 24.480469 19.621094 C 24.480469 20.542969 25.230469 21.292969 26.152344 21.292969 C 27.074219 21.292969 27.824219 20.542969 27.824219 19.621094 C 27.824219 18.699219 27.074219 17.949219 26.152344 17.949219 Z M 26.152344 17.949219 " fill-opacity="1" fill-rule="nonzero"/><path fill="#b30753" d="M 25.0625 22.011719 C 24.976562 22.011719 24.890625 21.988281 24.808594 21.945312 C 24.566406 21.804688 24.484375 21.496094 24.625 21.253906 L 26.800781 17.484375 C 26.941406 17.242188 27.25 17.160156 27.492188 17.300781 C 27.734375 17.4375 27.816406 17.746094 27.675781 17.988281 L 25.5 21.757812 C 25.40625 21.921875 25.234375 22.011719 25.0625 22.011719 Z M 25.0625 22.011719 " fill-opacity="1" fill-rule="nonzero"/><path fill="#b30753" d="M 50.816406 18.980469 L 46.136719 18.980469 C 45.859375 18.980469 45.632812 18.757812 45.632812 18.476562 C 45.632812 18.199219 45.859375 17.972656 46.136719 17.972656 L 50.816406 17.972656 C 51.09375 17.972656 51.320312 18.199219 51.320312 18.476562 C 51.320312 18.757812 51.09375 18.980469 50.816406 18.980469 Z M 50.816406 18.980469 " fill-opacity="1" fill-rule="nonzero"/><path fill="#b30753" d="M 50.816406 21.269531 L 46.136719 21.269531 C 45.859375 21.269531 45.632812 21.042969 45.632812 20.765625 C 45.632812 20.488281 45.859375 20.261719 46.136719 20.261719 L 50.816406 20.261719 C 51.09375 20.261719 51.320312 20.488281 51.320312 20.765625 C 51.320312 21.042969 51.09375 21.269531 50.816406 21.269531 Z M 50.816406 21.269531 " fill-opacity="1" fill-rule="nonzero"/><path fill="#b30753" d="M 44.074219 18.980469 L 39.394531 18.980469 C 39.117188 18.980469 38.890625 18.757812 38.890625 18.476562 C 38.890625 18.199219 39.117188 17.972656 39.394531 17.972656 L 44.074219 17.972656 C 44.351562 17.972656 44.578125 18.199219 44.578125 18.476562 C 44.578125 18.757812 44.351562 18.980469 44.074219 18.980469 Z M 44.074219 18.980469 " fill-opacity="1" fill-rule="nonzero"/><path fill="#b30753" d="M 44.074219 21.269531 L 39.394531 21.269531 C 39.117188 21.269531 38.890625 21.042969 38.890625 20.765625 C 38.890625 20.488281 39.117188 20.261719 39.394531 20.261719 L 44.074219 20.261719 C 44.351562 20.261719 44.578125 20.488281 44.578125 20.765625 C 44.578125 21.042969 44.351562 21.269531 44.074219 21.269531 Z M 44.074219 21.269531 " fill-opacity="1" fill-rule="nonzero"/><path fill="#b30753" d="M 37.394531 52.710938 C 30.082031 52.710938 24.128906 46.761719 24.128906 39.445312 C 24.128906 32.132812 30.082031 26.183594 37.394531 26.183594 C 44.710938 26.183594 50.660156 32.132812 50.660156 39.445312 C 50.660156 46.761719 44.710938 52.710938 37.394531 52.710938 Z M 37.394531 27.191406 C 30.636719 27.191406 25.140625 32.691406 25.140625 39.445312 C 25.140625 46.203125 30.636719 51.703125 37.394531 51.703125 C 44.152344 51.703125 49.648438 46.203125 49.648438 39.445312 C 49.648438 32.691406 44.152344 27.191406 37.394531 27.191406 Z M 37.394531 27.191406 " fill-opacity="1" fill-rule="nonzero"/><path fill="#b30753" d="M 47.746094 42.867188 L 46.347656 42.867188 C 45.789062 42.867188 45.335938 42.414062 45.335938 41.851562 L 45.335938 37.039062 C 45.335938 36.480469 45.789062 36.027344 46.347656 36.027344 L 47.746094 36.027344 C 48.308594 36.027344 48.761719 36.480469 48.761719 37.039062 L 48.761719 41.851562 C 48.761719 42.414062 48.308594 42.867188 47.746094 42.867188 Z M 46.347656 37.035156 L 46.34375 41.851562 L 47.746094 41.859375 L 47.753906 37.039062 L 47.746094 37.035156 Z M 46.347656 37.035156 " fill-opacity="1" fill-rule="nonzero"/><path fill="#b30753" d="M 31.265625 40.28125 C 31 40.28125 30.777344 40.074219 30.761719 39.804688 C 30.664062 37.960938 31.308594 36.210938 32.578125 34.875 C 33.84375 33.539062 35.554688 32.804688 37.394531 32.804688 C 39.757812 32.804688 41.964844 34.078125 43.148438 36.125 C 43.289062 36.367188 43.207031 36.675781 42.964844 36.816406 C 42.722656 36.953125 42.414062 36.871094 42.273438 36.632812 C 41.269531 34.894531 39.398438 33.8125 37.394531 33.8125 C 35.832031 33.8125 34.382812 34.4375 33.308594 35.570312 C 32.234375 36.703125 31.6875 38.1875 31.769531 39.75 C 31.785156 40.03125 31.570312 40.265625 31.292969 40.28125 C 31.285156 40.28125 31.273438 40.28125 31.265625 40.28125 Z M 31.265625 40.28125 " fill-opacity="1" fill-rule="nonzero"/><path fill="#b30753" d="M 42.710938 36.882812 C 42.6875 36.882812 42.664062 36.882812 42.640625 36.878906 L 40.277344 36.550781 C 40 36.511719 39.808594 36.257812 39.847656 35.980469 C 39.886719 35.703125 40.140625 35.511719 40.417969 35.550781 L 42.28125 35.808594 L 42.539062 33.945312 C 42.578125 33.667969 42.832031 33.476562 43.109375 33.515625 C 43.382812 33.554688 43.578125 33.808594 43.539062 34.085938 L 43.210938 36.449219 C 43.191406 36.582031 43.121094 36.699219 43.015625 36.78125 C 42.925781 36.847656 42.820312 36.882812 42.710938 36.882812 Z M 42.710938 36.882812 " fill-opacity="1" fill-rule="nonzero"/><path fill="#b30753" d="M 37.394531 46.089844 C 35.058594 46.089844 32.871094 44.84375 31.679688 42.832031 C 31.535156 42.589844 31.613281 42.28125 31.855469 42.140625 C 32.09375 41.996094 32.402344 42.074219 32.546875 42.316406 C 33.558594 44.023438 35.414062 45.078125 37.394531 45.078125 C 37.414062 45.078125 37.4375 45.078125 37.457031 45.078125 C 39.015625 45.0625 40.460938 44.421875 41.523438 43.28125 C 42.585938 42.132812 43.117188 40.644531 43.015625 39.082031 C 43 38.804688 43.210938 38.5625 43.488281 38.546875 C 43.765625 38.527344 44.003906 38.738281 44.023438 39.015625 C 44.140625 40.859375 43.515625 42.617188 42.261719 43.964844 C 41.011719 45.316406 39.308594 46.070312 37.46875 46.089844 C 37.441406 46.089844 37.417969 46.089844 37.394531 46.089844 Z M 37.394531 46.089844 " fill-opacity="1" fill-rule="nonzero"/><path fill="#b30753" d="M 31.8125 45.445312 C 31.789062 45.445312 31.769531 45.445312 31.746094 45.441406 C 31.46875 45.40625 31.273438 45.152344 31.308594 44.875 L 31.613281 42.507812 C 31.628906 42.375 31.699219 42.253906 31.804688 42.175781 C 31.910156 42.09375 32.042969 42.054688 32.175781 42.074219 L 34.542969 42.375 C 34.820312 42.410156 35.015625 42.664062 34.980469 42.941406 C 34.945312 43.214844 34.691406 43.410156 34.417969 43.375 L 32.550781 43.136719 L 32.3125 45.003906 C 32.277344 45.257812 32.0625 45.445312 31.8125 45.445312 Z M 31.8125 45.445312 " fill-opacity="1" fill-rule="nonzero"/><path fill="#b30753" d="M 37.394531 50.03125 C 31.558594 50.03125 26.808594 45.285156 26.808594 39.445312 C 26.808594 33.609375 31.558594 28.859375 37.394531 28.859375 C 39.714844 28.859375 41.917969 29.597656 43.765625 30.992188 C 45.550781 32.339844 46.886719 34.253906 47.53125 36.386719 C 47.609375 36.652344 47.460938 36.933594 47.191406 37.015625 C 46.925781 37.09375 46.644531 36.945312 46.5625 36.675781 C 45.355469 32.667969 41.585938 29.871094 37.394531 29.871094 C 32.113281 29.871094 27.816406 34.167969 27.816406 39.445312 C 27.816406 44.726562 32.113281 49.023438 37.394531 49.023438 C 41.585938 49.023438 45.355469 46.226562 46.5625 42.21875 C 46.644531 41.949219 46.925781 41.800781 47.191406 41.878906 C 47.460938 41.960938 47.609375 42.242188 47.53125 42.507812 C 46.886719 44.640625 45.550781 46.554688 43.765625 47.902344 C 41.917969 49.296875 39.714844 50.03125 37.394531 50.03125 Z M 37.394531 50.03125 " fill-opacity="1" fill-rule="nonzero"/><path fill="#b30753" d="M 33.078125 22.304688 C 31.597656 22.304688 30.394531 21.101562 30.394531 19.621094 C 30.394531 18.144531 31.597656 16.941406 33.078125 16.941406 C 34.554688 16.941406 35.757812 18.144531 35.757812 19.621094 C 35.757812 21.101562 34.554688 22.304688 33.078125 22.304688 Z M 33.078125 17.949219 C 32.15625 17.949219 31.40625 18.699219 31.40625 19.621094 C 31.40625 20.542969 32.15625 21.292969 33.078125 21.292969 C 34 21.292969 34.75 20.542969 34.75 19.621094 C 34.75 18.699219 34 17.949219 33.078125 17.949219 Z M 33.078125 17.949219 " fill-opacity="1" fill-rule="nonzero"/><path fill="#b30753" d="M 31.988281 22.011719 C 31.902344 22.011719 31.816406 21.988281 31.734375 21.945312 C 31.492188 21.804688 31.410156 21.496094 31.550781 21.253906 L 33.726562 17.484375 C 33.867188 17.242188 34.175781 17.160156 34.417969 17.300781 C 34.660156 17.4375 34.742188 17.746094 34.601562 17.988281 L 32.425781 21.757812 C 32.332031 21.921875 32.160156 22.011719 31.988281 22.011719 Z M 31.988281 22.011719 " fill-opacity="1" fill-rule="nonzero"/><g clip-path="url(#6fc7d27be5)"><path fill="#b30753" d="M 4.875 21.175781 L 5.503906 19.878906 L 71.441406 51.9375 L 70.8125 53.234375 Z M 4.875 21.175781 " fill-opacity="1" fill-rule="nonzero"/></g></svg>