<svg xmlns="http://www.w3.org/2000/svg" xmlns:xlink="http://www.w3.org/1999/xlink" width="101" zoomAndPan="magnify" viewBox="0 0 75.75 75.749997" height="101" preserveAspectRatio="xMidYMid meet" version="1.0"><defs><clipPath id="d53ef3ca9a"><path d="M 0 0 L 74.753906 0 L 74.753906 74.753906 L 0 74.753906 Z M 0 0 " clip-rule="nonzero"/></clipPath><clipPath id="4056ae16a6"><path d="M 17.03125 15.695312 L 55.902344 15.695312 L 55.902344 59.050781 L 17.03125 59.050781 Z M 17.03125 15.695312 " clip-rule="nonzero"/></clipPath></defs><g clip-path="url(#d53ef3ca9a)"><path fill="#b30753" d="M 37.386719 74.777344 C 16.734375 74.777344 0 57.929688 0 37.386719 C 0 16.847656 16.734375 0 37.386719 0 C 58.042969 0 74.777344 16.734375 74.777344 37.386719 C 74.777344 58.042969 57.929688 74.777344 37.386719 74.777344 Z M 37.386719 2.308594 C 18 2.308594 2.308594 18 2.308594 37.386719 C 2.308594 56.773438 18 72.46875 37.386719 72.46875 C 56.773438 72.46875 72.46875 56.773438 72.46875 37.386719 C 72.46875 18 56.660156 2.308594 37.386719 2.308594 Z M 37.386719 2.308594 " fill-opacity="1" fill-rule="nonzero"/></g><g clip-path="url(#4056ae16a6)"><path fill="#b30753" d="M 55.65625 29.976562 L 54.261719 29.976562 L 54.261719 54.835938 L 55.683594 54.835938 C 55.988281 54.835938 56.242188 55.089844 56.242188 55.421875 L 56.242188 58.492188 C 56.242188 58.796875 55.988281 59.078125 55.683594 59.078125 L 17.613281 59.078125 C 17.308594 59.078125 17.03125 58.796875 17.03125 58.492188 L 17.03125 55.421875 C 17.03125 55.089844 17.308594 54.835938 17.613281 54.835938 L 19.035156 54.835938 L 19.035156 29.976562 L 17.613281 29.976562 C 17.308594 29.976562 17.03125 29.722656 17.03125 29.417969 L 17.03125 26.089844 C 17.03125 25.859375 17.15625 25.65625 17.359375 25.554688 L 36.382812 15.804688 C 36.535156 15.703125 36.738281 15.703125 36.914062 15.804688 L 55.9375 25.554688 C 56.113281 25.65625 56.242188 25.859375 56.242188 26.089844 L 56.242188 29.417969 C 56.242188 29.722656 55.988281 29.976562 55.65625 29.976562 Z M 36.636719 48.589844 C 34.121094 48.589844 31.886719 47.394531 30.464844 45.515625 L 30.464844 51.765625 L 42.808594 51.765625 L 42.808594 45.515625 C 41.410156 47.394531 39.148438 48.589844 36.636719 48.589844 Z M 28.914062 40.921875 C 28.914062 40.261719 28.992188 39.574219 29.167969 38.9375 C 29.195312 38.734375 29.269531 38.558594 29.320312 38.378906 L 29.320312 33.632812 L 27.976562 33.632812 L 27.976562 51.765625 L 29.320312 51.765625 L 29.320312 43.359375 C 29.246094 42.925781 29.015625 42.597656 28.941406 41.429688 Z M 30.464844 36.222656 C 33.589844 32.109375 39.707031 32.109375 42.808594 36.222656 L 42.808594 33.632812 C 42.171875 33.632812 41.28125 33.785156 41.28125 33.074219 L 41.28125 29.976562 L 32.015625 29.976562 L 32.015625 33.074219 C 32.015625 33.785156 31.125 33.632812 30.464844 33.632812 Z M 36.636719 34.292969 C 33.03125 34.292969 30.058594 37.238281 30.058594 40.871094 C 30.058594 44.5 33.03125 47.445312 36.636719 47.445312 C 40.265625 47.445312 43.214844 44.5 43.214844 40.871094 C 43.214844 37.238281 40.265625 34.292969 36.636719 34.292969 Z M 36.078125 44.578125 C 34.453125 44.144531 33.945312 41.910156 35.035156 41.910156 C 35.367188 41.910156 35.621094 42.164062 35.621094 42.46875 C 35.621094 43.839844 37.675781 43.839844 37.675781 42.46875 C 37.675781 41.734375 37.371094 41.632812 36.507812 41.429688 C 35.695312 41.226562 34.453125 40.945312 34.453125 39.269531 C 34.453125 38.253906 35.136719 37.414062 36.078125 37.160156 C 36.078125 36.628906 35.925781 35.789062 36.636719 35.789062 C 37.347656 35.789062 37.21875 36.628906 37.21875 37.160156 C 38.84375 37.59375 39.351562 39.828125 38.261719 39.828125 C 37.929688 39.828125 37.675781 39.574219 37.675781 39.269531 C 37.675781 37.898438 35.621094 37.898438 35.621094 39.269531 C 35.621094 40.007812 35.925781 40.109375 36.789062 40.3125 C 37.601562 40.515625 38.820312 40.792969 38.820312 42.46875 C 38.820312 43.484375 38.132812 44.324219 37.21875 44.578125 C 37.21875 45.109375 37.347656 45.949219 36.636719 45.949219 C 35.925781 45.949219 36.078125 45.109375 36.078125 44.578125 Z M 53.117188 29.976562 L 50.449219 29.976562 L 50.449219 51.765625 L 53.117188 51.765625 Z M 49.28125 29.976562 L 47.988281 29.976562 L 47.988281 33.074219 C 47.988281 33.785156 47.097656 33.632812 46.464844 33.632812 L 46.464844 51.765625 L 49.28125 51.765625 Z M 20.179688 51.765625 L 22.847656 51.765625 L 22.847656 29.976562 L 20.179688 29.976562 Z M 23.988281 51.765625 L 26.832031 51.765625 L 26.832031 33.632812 C 26.199219 33.632812 25.285156 33.785156 25.285156 33.074219 L 25.285156 29.976562 L 23.988281 29.976562 Z M 43.976562 51.765625 L 45.296875 51.765625 L 45.296875 33.632812 L 43.976562 33.632812 L 43.976562 38.378906 C 44.230469 39.195312 44.382812 40.03125 44.382812 40.871094 L 44.355469 41.277344 C 44.332031 41.988281 44.203125 42.671875 43.976562 43.359375 Z M 53.117188 54.835938 L 53.117188 52.90625 L 20.179688 52.90625 L 20.179688 54.835938 Z M 18.199219 57.910156 L 55.097656 57.910156 L 55.097656 55.980469 L 18.199219 55.980469 Z M 36.636719 27.6875 C 34.25 27.6875 32.292969 25.757812 32.292969 23.347656 C 32.292969 20.960938 34.25 19.003906 36.636719 19.003906 C 39.046875 19.003906 41.003906 20.960938 41.003906 23.347656 C 41.003906 25.757812 39.046875 27.6875 36.636719 27.6875 Z M 36.636719 20.148438 C 34.882812 20.148438 33.460938 21.59375 33.460938 23.347656 C 33.460938 25.125 34.882812 26.546875 36.636719 26.546875 C 38.414062 26.546875 39.835938 25.125 39.835938 23.347656 C 39.835938 21.59375 38.414062 20.148438 36.636719 20.148438 Z M 46.84375 29.976562 L 42.425781 29.976562 L 42.425781 32.488281 L 46.84375 32.488281 Z M 30.871094 29.976562 L 26.453125 29.976562 L 26.453125 32.488281 L 30.871094 32.488281 Z M 18.199219 28.832031 L 55.097656 28.832031 L 55.097656 26.417969 L 36.636719 16.945312 L 18.199219 26.445312 Z M 18.199219 28.832031 " fill-opacity="1" fill-rule="evenodd"/></g></svg>