<svg xmlns="http://www.w3.org/2000/svg" xmlns:xlink="http://www.w3.org/1999/xlink" width="101" zoomAndPan="magnify" viewBox="0 0 75.75 75.749997" height="101" preserveAspectRatio="xMidYMid meet" version="1.0"><defs><clipPath id="c783e80614"><path d="M 0 0 L 74.753906 0 L 74.753906 74.753906 L 0 74.753906 Z M 0 0 " clip-rule="nonzero"/></clipPath><clipPath id="e7105bcd2c"><path d="M 12.289062 14 L 62.371094 14 L 62.371094 62.574219 L 12.289062 62.574219 Z M 12.289062 14 " clip-rule="nonzero"/></clipPath></defs><g clip-path="url(#c783e80614)"><path fill="#b30753" d="M 37.386719 74.777344 C 16.734375 74.777344 0 57.929688 0 37.386719 C 0 16.847656 16.734375 0 37.386719 0 C 58.042969 0 74.777344 16.734375 74.777344 37.386719 C 74.777344 58.042969 57.929688 74.777344 37.386719 74.777344 Z M 37.386719 2.308594 C 18 2.308594 2.308594 18 2.308594 37.386719 C 2.308594 56.773438 18 72.46875 37.386719 72.46875 C 56.773438 72.46875 72.46875 56.773438 72.46875 37.386719 C 72.46875 18 56.660156 2.308594 37.386719 2.308594 Z M 37.386719 2.308594 " fill-opacity="1" fill-rule="nonzero"/></g><g clip-path="url(#e7105bcd2c)"><path fill="#b30753" d="M 60.316406 36.265625 L 58.988281 38.238281 L 30.210938 18.855469 L 31.539062 16.886719 C 32.148438 15.980469 33.382812 15.738281 34.285156 16.347656 L 59.777344 33.515625 C 60.683594 34.125 60.925781 35.359375 60.316406 36.265625 Z M 51.046875 50.027344 L 52.507812 39.601562 L 56.332031 42.179688 Z M 48.335938 59.074219 C 48.183594 60.152344 47.183594 60.910156 46.101562 60.761719 L 15.667969 56.496094 C 14.585938 56.34375 13.824219 55.339844 13.980469 54.257812 L 15.847656 40.921875 L 50.207031 45.738281 Z M 16.839844 33.863281 C 16.988281 32.78125 17.992188 32.027344 19.074219 32.175781 L 49.507812 36.445312 C 50.589844 36.59375 51.347656 37.59375 51.195312 38.679688 L 50.863281 41.03125 L 16.503906 36.214844 Z M 27.558594 22.796875 L 44.671875 34.324219 L 21.941406 31.136719 Z M 60.574219 32.335938 L 35.085938 15.167969 C 33.527344 14.117188 31.40625 14.527344 30.355469 16.089844 L 20.367188 30.917969 L 19.273438 30.765625 C 17.410156 30.503906 15.6875 31.804688 15.425781 33.667969 L 12.570312 54.058594 C 12.304688 55.917969 13.609375 57.644531 15.46875 57.90625 L 45.902344 62.171875 C 47.761719 62.433594 49.488281 61.128906 49.75 59.269531 L 50.59375 53.25 L 61.496094 37.058594 C 62.546875 35.503906 62.132812 33.382812 60.574219 32.335938 " fill-opacity="1" fill-rule="nonzero"/></g><path fill="#b30753" d="M 32.277344 46.9375 L 46.953125 49 L 47.113281 47.835938 L 32.441406 45.777344 L 32.277344 46.9375 " fill-opacity="1" fill-rule="nonzero"/><path fill="#b30753" d="M 31.929688 49.457031 L 46.601562 51.507812 L 46.761719 50.34375 L 32.089844 48.289062 L 31.929688 49.457031 " fill-opacity="1" fill-rule="nonzero"/></svg>