<svg xmlns="http://www.w3.org/2000/svg" xmlns:xlink="http://www.w3.org/1999/xlink" width="101" zoomAndPan="magnify" viewBox="0 0 75.75 75.749997" height="101" preserveAspectRatio="xMidYMid meet" version="1.0"><defs><clipPath id="1c8fb325ae"><path d="M 0 0 L 74.753906 0 L 74.753906 74.753906 L 0 74.753906 Z M 0 0 " clip-rule="nonzero"/></clipPath><clipPath id="e55e07c552"><path d="M 14.960938 14.960938 L 54 14.960938 L 54 42 L 14.960938 42 Z M 14.960938 14.960938 " clip-rule="nonzero"/></clipPath><clipPath id="dede1e0460"><path d="M 38 39 L 59.8125 39 L 59.8125 59.8125 L 38 59.8125 Z M 38 39 " clip-rule="nonzero"/></clipPath></defs><g clip-path="url(#1c8fb325ae)"><path fill="#b30753" d="M 37.386719 74.777344 C 16.734375 74.777344 0 57.929688 0 37.386719 C 0 16.847656 16.734375 0 37.386719 0 C 58.042969 0 74.777344 16.734375 74.777344 37.386719 C 74.777344 58.042969 57.929688 74.777344 37.386719 74.777344 Z M 37.386719 2.308594 C 18 2.308594 2.308594 18 2.308594 37.386719 C 2.308594 56.773438 18 72.46875 37.386719 72.46875 C 56.773438 72.46875 72.46875 56.773438 72.46875 37.386719 C 72.46875 18 56.660156 2.308594 37.386719 2.308594 Z M 37.386719 2.308594 " fill-opacity="1" fill-rule="nonzero"/></g><path fill="#b30753" d="M 37.390625 48.992188 L 31.976562 48.992188 L 31.976562 34.296875 C 31.976562 33.871094 31.628906 33.523438 31.203125 33.523438 L 21.921875 33.523438 C 21.492188 33.523438 21.148438 33.871094 21.148438 34.296875 L 21.148438 48.992188 L 18.054688 48.992188 L 18.054688 46.671875 C 18.054688 46.246094 17.707031 45.898438 17.28125 45.898438 C 16.851562 45.898438 16.507812 46.246094 16.507812 46.671875 L 16.507812 49.765625 C 16.507812 50.195312 16.851562 50.539062 17.28125 50.539062 L 37.390625 50.539062 C 37.820312 50.539062 38.164062 50.195312 38.164062 49.765625 C 38.164062 49.339844 37.820312 48.992188 37.390625 48.992188 Z M 22.695312 48.992188 L 22.695312 35.070312 L 30.429688 35.070312 L 30.429688 48.992188 Z M 22.695312 48.992188 " fill-opacity="1" fill-rule="nonzero"/><g clip-path="url(#e55e07c552)"><path fill="#b30753" d="M 16.507812 28.109375 L 16.507812 40.484375 C 16.507812 40.914062 16.851562 41.257812 17.28125 41.257812 C 17.707031 41.257812 18.054688 40.914062 18.054688 40.484375 L 18.054688 28.804688 C 18.304688 28.855469 18.5625 28.882812 18.828125 28.882812 C 20.097656 28.882812 21.214844 28.257812 21.921875 27.3125 C 22.625 28.257812 23.746094 28.882812 25.015625 28.882812 C 26.285156 28.882812 27.402344 28.257812 28.109375 27.3125 C 28.816406 28.257812 29.933594 28.882812 31.203125 28.882812 C 32.472656 28.882812 33.589844 28.257812 34.296875 27.3125 C 35.003906 28.257812 36.121094 28.882812 37.390625 28.882812 C 38.660156 28.882812 39.78125 28.257812 40.484375 27.3125 C 41.191406 28.257812 42.308594 28.882812 43.578125 28.882812 C 44.847656 28.882812 45.96875 28.257812 46.671875 27.3125 C 47.378906 28.257812 48.496094 28.882812 49.765625 28.882812 C 50.03125 28.882812 50.289062 28.855469 50.539062 28.804688 L 50.539062 38.9375 C 50.539062 39.367188 50.886719 39.710938 51.3125 39.710938 C 51.742188 39.710938 52.089844 39.367188 52.089844 38.9375 L 52.089844 28.109375 C 52.089844 28.101562 52.085938 28.097656 52.085938 28.09375 C 53.019531 27.386719 53.636719 26.277344 53.636719 25.015625 C 53.636719 24.933594 53.621094 24.847656 53.59375 24.769531 L 50.5 15.488281 C 50.394531 15.171875 50.101562 14.960938 49.765625 14.960938 L 18.828125 14.960938 C 18.496094 14.960938 18.199219 15.171875 18.09375 15.488281 L 15 24.769531 C 14.972656 24.847656 14.960938 24.933594 14.960938 25.015625 C 14.960938 26.277344 15.574219 27.386719 16.507812 28.09375 C 16.507812 28.097656 16.507812 28.101562 16.507812 28.109375 Z M 18.828125 27.335938 C 17.820312 27.335938 16.96875 26.6875 16.648438 25.789062 L 21.003906 25.789062 C 20.683594 26.6875 19.835938 27.335938 18.828125 27.335938 Z M 25.015625 27.335938 C 24.003906 27.335938 23.144531 26.6875 22.828125 25.789062 L 27.203125 25.789062 C 26.882812 26.6875 26.023438 27.335938 25.015625 27.335938 Z M 31.203125 27.335938 C 30.195312 27.335938 29.335938 26.6875 29.015625 25.789062 L 33.390625 25.789062 C 33.070312 26.6875 32.210938 27.335938 31.203125 27.335938 Z M 37.390625 27.335938 C 36.382812 27.335938 35.523438 26.6875 35.203125 25.789062 L 39.578125 25.789062 C 39.261719 26.6875 38.402344 27.335938 37.390625 27.335938 Z M 43.578125 27.335938 C 42.570312 27.335938 41.710938 26.6875 41.390625 25.789062 L 45.765625 25.789062 C 45.449219 26.6875 44.589844 27.335938 43.578125 27.335938 Z M 47.589844 25.789062 L 51.945312 25.789062 C 51.625 26.6875 50.773438 27.335938 49.765625 27.335938 C 48.761719 27.335938 47.910156 26.6875 47.589844 25.789062 Z M 19.382812 16.507812 L 49.210938 16.507812 L 51.789062 24.242188 L 16.804688 24.242188 Z M 19.382812 16.507812 " fill-opacity="1" fill-rule="nonzero"/></g><path fill="#b30753" d="M 46.671875 39.710938 C 47.101562 39.710938 47.445312 39.367188 47.445312 38.9375 L 47.445312 32.75 C 47.445312 32.324219 47.101562 31.976562 46.671875 31.976562 L 34.296875 31.976562 C 33.871094 31.976562 33.523438 32.324219 33.523438 32.75 L 33.523438 42.03125 C 33.523438 42.460938 33.871094 42.804688 34.296875 42.804688 L 35.84375 42.804688 C 36.273438 42.804688 36.617188 42.460938 36.617188 42.03125 C 36.617188 41.605469 36.273438 41.257812 35.84375 41.257812 L 35.070312 41.257812 L 35.070312 33.523438 L 45.898438 33.523438 L 45.898438 38.9375 C 45.898438 39.367188 46.246094 39.710938 46.671875 39.710938 Z M 46.671875 39.710938 " fill-opacity="1" fill-rule="nonzero"/><g clip-path="url(#dede1e0460)"><path fill="#b30753" d="M 59.050781 55.183594 L 42.03125 55.183594 C 41.605469 55.183594 41.257812 54.835938 41.257812 54.410156 C 41.257812 53.980469 41.605469 53.636719 42.03125 53.636719 L 57.503906 53.636719 C 57.886719 53.636719 58.214844 53.351562 58.269531 52.96875 L 59.816406 42.140625 L 59.816406 42.136719 C 59.871094 41.726562 59.59375 41.347656 59.191406 41.273438 C 59.191406 41.269531 59.1875 41.269531 59.1875 41.269531 C 59.171875 41.269531 59.152344 41.265625 59.132812 41.261719 L 59.128906 41.261719 C 59.097656 41.261719 59.085938 41.261719 59.035156 41.257812 L 41.164062 41.257812 L 41.039062 40.375 C 40.984375 39.996094 40.65625 39.710938 40.273438 39.710938 L 38.964844 39.710938 C 38.535156 39.710938 38.191406 40.058594 38.191406 40.484375 C 38.191406 40.914062 38.535156 41.257812 38.964844 41.257812 L 39.601562 41.257812 L 39.710938 42.039062 C 39.710938 42.074219 39.714844 42.109375 39.71875 42.140625 L 41.164062 52.257812 C 40.3125 52.605469 39.710938 53.4375 39.710938 54.410156 C 39.710938 55.6875 40.753906 56.730469 42.03125 56.730469 L 42.949219 56.730469 C 42.863281 56.972656 42.804688 57.230469 42.804688 57.503906 C 42.804688 58.78125 43.847656 59.824219 45.125 59.824219 C 46.40625 59.824219 47.445312 58.78125 47.445312 57.503906 C 47.445312 57.230469 47.390625 56.972656 47.304688 56.730469 L 52.230469 56.730469 C 52.144531 56.972656 52.089844 57.230469 52.089844 57.503906 C 52.089844 58.78125 53.128906 59.824219 54.410156 59.824219 C 55.6875 59.824219 56.730469 58.78125 56.730469 57.503906 C 56.730469 57.230469 56.671875 56.972656 56.585938 56.730469 L 59.050781 56.730469 C 59.476562 56.730469 59.824219 56.382812 59.824219 55.957031 C 59.824219 55.527344 59.476562 55.183594 59.050781 55.183594 Z M 57.273438 48.992188 L 53.140625 48.992188 L 53.359375 45.898438 L 57.714844 45.898438 Z M 51.589844 48.992188 L 47.945312 48.992188 L 47.726562 45.898438 L 51.808594 45.898438 Z M 46.394531 48.992188 L 42.261719 48.992188 L 41.824219 45.898438 L 46.171875 45.898438 Z M 46.503906 50.539062 L 46.617188 52.089844 L 42.703125 52.089844 L 42.484375 50.539062 Z M 48.167969 52.089844 L 48.058594 50.539062 L 51.476562 50.539062 L 51.367188 52.089844 Z M 52.917969 52.089844 L 53.03125 50.539062 L 57.054688 50.539062 L 56.832031 52.089844 Z M 57.9375 44.351562 L 53.472656 44.351562 L 53.582031 42.804688 L 58.15625 42.804688 Z M 52.03125 42.804688 L 51.921875 44.351562 L 47.613281 44.351562 L 47.503906 42.804688 Z M 45.953125 42.804688 L 46.0625 44.351562 L 41.605469 44.351562 L 41.382812 42.804688 Z M 45.898438 57.503906 C 45.898438 57.929688 45.550781 58.277344 45.125 58.277344 C 44.699219 58.277344 44.351562 57.929688 44.351562 57.503906 C 44.351562 57.078125 44.699219 56.730469 45.125 56.730469 C 45.550781 56.730469 45.898438 57.078125 45.898438 57.503906 Z M 55.183594 57.503906 C 55.183594 57.929688 54.835938 58.277344 54.410156 58.277344 C 53.980469 58.277344 53.636719 57.929688 53.636719 57.503906 C 53.636719 57.078125 53.980469 56.730469 54.410156 56.730469 C 54.835938 56.730469 55.183594 57.078125 55.183594 57.503906 Z M 55.183594 57.503906 " fill-opacity="1" fill-rule="nonzero"/></g><path fill="#b30753" d="M 18.054688 43.578125 C 18.054688 43.792969 17.976562 43.976562 17.828125 44.125 C 17.675781 44.277344 17.492188 44.351562 17.28125 44.351562 C 17.066406 44.351562 16.882812 44.277344 16.734375 44.125 C 16.582031 43.976562 16.507812 43.792969 16.507812 43.578125 C 16.507812 43.367188 16.582031 43.183594 16.734375 43.03125 C 16.882812 42.882812 17.066406 42.804688 17.28125 42.804688 C 17.492188 42.804688 17.675781 42.882812 17.828125 43.03125 C 17.976562 43.183594 18.054688 43.367188 18.054688 43.578125 Z M 18.054688 43.578125 " fill-opacity="1" fill-rule="nonzero"/></svg>