<svg xmlns="http://www.w3.org/2000/svg" xmlns:xlink="http://www.w3.org/1999/xlink" width="101" zoomAndPan="magnify" viewBox="0 0 75.75 75.749997" height="101" preserveAspectRatio="xMidYMid meet" version="1.0"><defs><clipPath id="5d33c74234"><path d="M 0 0 L 74.753906 0 L 74.753906 74.753906 L 0 74.753906 Z M 0 0 " clip-rule="nonzero"/></clipPath><clipPath id="2c1e3d2747"><path d="M 24.328125 14.519531 L 50.492188 14.519531 L 50.492188 60.121094 L 24.328125 60.121094 Z M 24.328125 14.519531 " clip-rule="nonzero"/></clipPath></defs><g clip-path="url(#5d33c74234)"><path fill="#b30753" d="M 37.386719 74.777344 C 16.734375 74.777344 0 57.929688 0 37.386719 C 0 16.847656 16.734375 0 37.386719 0 C 58.042969 0 74.777344 16.734375 74.777344 37.386719 C 74.777344 58.042969 57.929688 74.777344 37.386719 74.777344 Z M 37.386719 2.308594 C 18 2.308594 2.308594 18 2.308594 37.386719 C 2.308594 56.773438 18 72.46875 37.386719 72.46875 C 56.773438 72.46875 72.46875 56.773438 72.46875 37.386719 C 72.46875 18 56.660156 2.308594 37.386719 2.308594 Z M 37.386719 2.308594 " fill-opacity="1" fill-rule="nonzero"/></g><g clip-path="url(#2c1e3d2747)"><path fill="#b30753" d="M 45.875 14.519531 L 28.902344 14.519531 C 26.382812 14.519531 24.335938 16.570312 24.335938 19.085938 L 24.335938 55.691406 C 24.335938 58.210938 26.382812 60.257812 28.902344 60.257812 L 45.875 60.257812 C 48.394531 60.257812 50.445312 58.210938 50.445312 55.691406 L 50.445312 19.085938 C 50.445312 16.570312 48.394531 14.519531 45.875 14.519531 Z M 25.769531 21.09375 L 49.007812 21.09375 L 49.007812 51.226562 L 25.769531 51.226562 Z M 28.902344 15.953125 L 45.875 15.953125 C 47.601562 15.953125 49.007812 17.359375 49.007812 19.085938 L 49.007812 19.65625 L 25.769531 19.65625 L 25.769531 19.085938 C 25.769531 17.359375 27.175781 15.953125 28.902344 15.953125 Z M 45.875 58.824219 L 28.902344 58.824219 C 27.175781 58.824219 25.769531 57.417969 25.769531 55.691406 L 25.769531 52.664062 L 49.007812 52.664062 L 49.007812 55.691406 C 49.007812 57.417969 47.601562 58.824219 45.875 58.824219 Z M 45.875 58.824219 " fill-opacity="1" fill-rule="nonzero"/></g><path fill="#b30753" d="M 38.886719 55.152344 L 35.828125 55.152344 C 35.429688 55.152344 35.109375 55.472656 35.109375 55.867188 C 35.109375 56.265625 35.429688 56.585938 35.828125 56.585938 L 38.886719 56.585938 C 39.285156 56.585938 39.605469 56.265625 39.605469 55.867188 C 39.605469 55.472656 39.285156 55.152344 38.886719 55.152344 Z M 38.886719 55.152344 " fill-opacity="1" fill-rule="nonzero"/><path fill="#b30753" d="M 29.882812 34.148438 L 31.046875 33.242188 L 43.765625 33.242188 L 44.925781 34.148438 C 45.058594 34.253906 45.214844 34.300781 45.367188 34.300781 C 45.582031 34.300781 45.792969 34.207031 45.933594 34.027344 C 46.175781 33.714844 46.121094 33.261719 45.808594 33.019531 L 37.847656 26.792969 C 37.585938 26.589844 37.222656 26.589844 36.964844 26.792969 L 29 33.019531 C 28.6875 33.261719 28.632812 33.714844 28.878906 34.027344 C 29.121094 34.339844 29.574219 34.394531 29.882812 34.148438 Z M 37.40625 28.269531 L 41.929688 31.808594 L 32.878906 31.808594 Z M 37.40625 28.269531 " fill-opacity="1" fill-rule="nonzero"/><path fill="#b30753" d="M 31.953125 33.863281 C 31.554688 33.863281 31.234375 34.183594 31.234375 34.582031 L 31.234375 41.085938 L 29.992188 41.085938 C 29.59375 41.085938 29.273438 41.410156 29.273438 41.804688 C 29.273438 42.199219 29.59375 42.523438 29.992188 42.523438 L 44.4375 42.523438 C 44.832031 42.523438 45.15625 42.199219 45.15625 41.804688 C 45.15625 41.410156 44.832031 41.085938 44.4375 41.085938 L 43.574219 41.085938 L 43.574219 34.582031 C 43.574219 34.183594 43.253906 33.863281 42.859375 33.863281 C 42.460938 33.863281 42.140625 34.183594 42.140625 34.582031 L 42.140625 41.085938 L 40.035156 41.085938 L 40.035156 34.582031 C 40.035156 34.183594 39.714844 33.863281 39.320312 33.863281 C 38.921875 33.863281 38.601562 34.183594 38.601562 34.582031 L 38.601562 41.085938 L 36.210938 41.085938 L 36.210938 34.582031 C 36.210938 34.183594 35.886719 33.863281 35.492188 33.863281 C 35.097656 33.863281 34.773438 34.183594 34.773438 34.582031 L 34.773438 41.085938 L 32.667969 41.085938 L 32.667969 34.582031 C 32.667969 34.183594 32.347656 33.863281 31.953125 33.863281 Z M 31.953125 33.863281 " fill-opacity="1" fill-rule="nonzero"/><path fill="#b30753" d="M 45.679688 43.671875 L 28.746094 43.671875 C 28.351562 43.671875 28.03125 43.992188 28.03125 44.386719 C 28.03125 44.785156 28.351562 45.105469 28.746094 45.105469 L 45.679688 45.105469 C 46.078125 45.105469 46.398438 44.785156 46.398438 44.386719 C 46.398438 43.992188 46.078125 43.671875 45.679688 43.671875 Z M 45.679688 43.671875 " fill-opacity="1" fill-rule="nonzero"/><path fill="#b30753" d="M 37.40625 31.199219 C 37.933594 31.199219 38.359375 30.769531 38.359375 30.242188 C 38.359375 29.714844 37.933594 29.289062 37.40625 29.289062 C 36.878906 29.289062 36.449219 29.714844 36.449219 30.242188 C 36.449219 30.769531 36.878906 31.199219 37.40625 31.199219 Z M 37.40625 29.765625 C 37.667969 29.765625 37.882812 29.980469 37.882812 30.242188 C 37.882812 30.507812 37.667969 30.722656 37.40625 30.722656 C 37.140625 30.722656 36.925781 30.507812 36.925781 30.242188 C 36.925781 29.980469 37.140625 29.765625 37.40625 29.765625 Z M 37.40625 29.765625 " fill-opacity="1" fill-rule="nonzero"/></svg>