<svg xmlns="http://www.w3.org/2000/svg" xmlns:xlink="http://www.w3.org/1999/xlink" width="101" zoomAndPan="magnify" viewBox="0 0 75.75 75.749997" height="101" preserveAspectRatio="xMidYMid meet" version="1.0"><defs><clipPath id="f19854eddf"><path d="M 0 0 L 74.753906 0 L 74.753906 74.753906 L 0 74.753906 Z M 0 0 " clip-rule="nonzero"/></clipPath><clipPath id="01f584ad3c"><path d="M 13.507812 13.609375 L 61.351562 13.609375 L 61.351562 61.449219 L 13.507812 61.449219 Z M 13.507812 13.609375 " clip-rule="nonzero"/></clipPath></defs><g clip-path="url(#f19854eddf)"><path fill="#b30753" d="M 37.386719 74.777344 C 16.734375 74.777344 0 57.929688 0 37.386719 C 0 16.847656 16.734375 0 37.386719 0 C 58.042969 0 74.777344 16.734375 74.777344 37.386719 C 74.777344 58.042969 57.929688 74.777344 37.386719 74.777344 Z M 37.386719 2.308594 C 18 2.308594 2.308594 18 2.308594 37.386719 C 2.308594 56.773438 18 72.46875 37.386719 72.46875 C 56.773438 72.46875 72.46875 56.773438 72.46875 37.386719 C 72.46875 18 56.660156 2.308594 37.386719 2.308594 Z M 37.386719 2.308594 " fill-opacity="1" fill-rule="nonzero"/></g><g clip-path="url(#01f584ad3c)"><path fill="#b30753" d="M 20.820312 56.179688 C 20.820312 55.78125 21.140625 55.457031 21.542969 55.457031 C 21.9375 55.457031 22.261719 55.78125 22.261719 56.179688 L 22.261719 58.355469 C 22.261719 58.976562 22.617188 59.703125 23.175781 59.703125 L 47.976562 59.703125 C 48.53125 59.703125 48.890625 58.976562 48.890625 58.355469 L 48.890625 56.105469 C 48.71875 56.453125 48.300781 56.605469 47.949219 56.441406 C 47.585938 56.277344 47.429688 55.851562 47.59375 55.492188 L 48.945312 52.535156 C 49.207031 51.96875 50.003906 51.992188 50.25 52.535156 L 51.605469 55.492188 C 51.765625 55.855469 51.609375 56.277344 51.246094 56.441406 C 50.910156 56.597656 50.515625 56.464844 50.332031 56.152344 L 50.332031 58.355469 C 50.332031 59.773438 49.378906 61.144531 47.972656 61.144531 L 23.175781 61.144531 C 21.773438 61.144531 20.820312 59.773438 20.820312 58.355469 Z M 22.261719 18.585938 C 22.261719 18.984375 21.9375 19.308594 21.542969 19.308594 C 21.144531 19.308594 20.820312 18.984375 20.820312 18.585938 L 20.820312 16.410156 C 20.820312 14.996094 21.773438 13.625 23.175781 13.625 L 47.976562 13.625 C 49.382812 13.625 50.335938 14.996094 50.335938 16.410156 L 50.335938 18.617188 C 50.519531 18.300781 50.910156 18.167969 51.25 18.324219 C 51.613281 18.492188 51.769531 18.917969 51.605469 19.277344 L 50.253906 22.230469 C 50.003906 22.777344 49.207031 22.800781 48.949219 22.230469 L 47.59375 19.277344 C 47.433594 18.917969 47.589844 18.492188 47.953125 18.324219 C 48.304688 18.164062 48.722656 18.3125 48.894531 18.664062 L 48.894531 16.410156 C 48.894531 15.789062 48.535156 15.066406 47.980469 15.066406 L 23.175781 15.066406 C 22.621094 15.066406 22.261719 15.789062 22.261719 16.410156 Z M 50.933594 35.917969 C 53.113281 35.894531 54.902344 37.636719 54.929688 39.820312 C 54.957031 42.003906 53.210938 43.792969 51.027344 43.820312 C 48.847656 43.847656 47.058594 42.101562 47.027344 39.917969 C 47.003906 37.734375 48.75 35.945312 50.933594 35.917969 Z M 52.734375 38.070312 C 51.132812 36.503906 48.4375 37.671875 48.464844 39.902344 C 48.492188 42.128906 51.214844 43.226562 52.777344 41.625 C 53.75 40.632812 53.734375 39.042969 52.734375 38.070312 Z M 50.40625 32.585938 L 51.378906 32.574219 C 52.0625 32.5625 52.621094 33.109375 52.628906 33.792969 L 52.632812 34.015625 C 53.035156 34.132812 53.445312 34.296875 53.820312 34.492188 C 54.121094 34.183594 54.359375 33.964844 54.847656 33.957031 C 55.160156 33.957031 55.480469 34.074219 55.722656 34.308594 L 56.425781 34.996094 L 56.429688 34.992188 C 56.910156 35.476562 56.914062 36.257812 56.4375 36.746094 L 56.441406 36.746094 L 56.285156 36.898438 C 56.492188 37.265625 56.664062 37.667969 56.789062 38.074219 C 57.222656 38.070312 57.546875 38.082031 57.890625 38.421875 C 58.121094 38.640625 58.261719 38.949219 58.265625 39.292969 L 58.277344 40.265625 C 58.285156 40.949219 57.738281 41.507812 57.058594 41.515625 L 56.832031 41.519531 C 56.71875 41.921875 56.554688 42.335938 56.355469 42.707031 L 56.527344 42.871094 C 57.007812 43.351562 57.011719 44.132812 56.535156 44.617188 L 56.535156 44.621094 L 55.859375 45.308594 C 55.382812 45.796875 54.597656 45.808594 54.113281 45.332031 L 53.949219 45.175781 C 53.582031 45.382812 53.179688 45.550781 52.773438 45.675781 L 52.777344 45.914062 C 52.777344 46.597656 52.234375 47.144531 51.546875 47.152344 L 51.546875 47.15625 L 50.582031 47.167969 C 49.898438 47.175781 49.339844 46.628906 49.332031 45.945312 L 49.328125 45.722656 C 48.925781 45.605469 48.511719 45.445312 48.140625 45.25 L 47.980469 45.414062 L 47.980469 45.417969 C 47.5 45.898438 46.71875 45.902344 46.230469 45.425781 L 46.226562 45.429688 L 45.539062 44.75 C 45.050781 44.277344 45.039062 43.488281 45.515625 43.003906 L 45.671875 42.84375 C 45.46875 42.472656 45.296875 42.074219 45.171875 41.667969 C 44.738281 41.671875 44.414062 41.660156 44.066406 41.320312 C 43.839844 41.097656 43.699219 40.792969 43.695312 40.449219 L 43.683594 39.476562 C 43.675781 38.789062 44.21875 38.230469 44.902344 38.222656 L 45.128906 38.222656 C 45.242188 37.820312 45.402344 37.40625 45.601562 37.03125 L 45.433594 36.871094 C 44.953125 36.390625 44.949219 35.609375 45.425781 35.121094 L 45.421875 35.121094 L 46.105469 34.425781 L 46.105469 34.421875 C 46.582031 33.941406 47.367188 33.9375 47.851562 34.414062 L 47.855469 34.414062 L 48.011719 34.566406 C 48.378906 34.359375 48.777344 34.1875 49.183594 34.0625 C 49.175781 33.632812 49.191406 33.308594 49.53125 32.960938 C 49.753906 32.730469 50.058594 32.589844 50.40625 32.585938 Z M 51.195312 34.011719 L 50.621094 34.015625 C 50.628906 34.378906 50.613281 34.640625 50.378906 34.953125 C 50.046875 35.398438 49.671875 35.378906 49.152344 35.605469 C 48.632812 35.824219 48.382812 36.113281 47.835938 36.042969 C 47.449219 36 47.25 35.828125 46.992188 35.574219 L 46.589844 35.988281 C 46.847656 36.238281 47.023438 36.433594 47.078125 36.820312 C 47.160156 37.367188 46.882812 37.625 46.671875 38.148438 C 46.464844 38.667969 46.488281 39.046875 46.050781 39.394531 C 45.746094 39.632812 45.484375 39.652344 45.121094 39.65625 L 45.132812 40.230469 C 45.492188 40.226562 45.75 40.238281 46.066406 40.472656 C 46.507812 40.804688 46.496094 41.179688 46.71875 41.699219 C 46.941406 42.21875 47.222656 42.46875 47.160156 43.015625 C 47.113281 43.402344 46.941406 43.601562 46.691406 43.863281 L 47.097656 44.261719 C 47.351562 44 47.546875 43.828125 47.933594 43.769531 C 48.480469 43.691406 48.738281 43.96875 49.261719 44.179688 C 49.78125 44.386719 50.160156 44.359375 50.503906 44.796875 C 50.746094 45.105469 50.765625 45.367188 50.769531 45.730469 L 51.34375 45.71875 C 51.339844 45.359375 51.351562 45.097656 51.582031 44.785156 C 51.898438 44.351562 52.308594 44.351562 52.8125 44.136719 C 53.328125 43.910156 53.578125 43.628906 54.125 43.691406 C 54.515625 43.738281 54.714844 43.910156 54.96875 44.160156 L 55.367188 43.753906 C 55.113281 43.5 54.933594 43.308594 54.878906 42.917969 C 54.800781 42.371094 55.082031 42.113281 55.289062 41.589844 C 55.496094 41.070312 55.472656 40.691406 55.910156 40.347656 C 56.214844 40.105469 56.480469 40.089844 56.835938 40.082031 L 56.832031 39.507812 C 56.46875 39.511719 56.207031 39.5 55.894531 39.269531 L 55.898438 39.265625 C 55.460938 38.949219 55.460938 38.546875 55.242188 38.039062 C 55.023438 37.519531 54.738281 37.269531 54.804688 36.722656 C 54.847656 36.335938 55.019531 36.136719 55.273438 35.878906 L 54.859375 35.480469 C 54.609375 35.738281 54.414062 35.914062 54.027344 35.96875 C 53.480469 36.050781 53.222656 35.769531 52.699219 35.558594 C 52.179688 35.351562 51.800781 35.375 51.453125 34.9375 C 51.21875 34.632812 51.199219 34.371094 51.195312 34.011719 Z M 41.113281 30.78125 L 58.199219 30.78125 L 58.199219 28.484375 L 45.386719 28.484375 C 45.203125 28.484375 45.015625 28.414062 44.875 28.269531 L 42.839844 26.234375 L 36.707031 26.234375 L 36.707031 45.453125 C 36.6875 46.449219 37.015625 47.054688 37.582031 47.351562 C 38.046875 47.589844 38.582031 47.570312 39.046875 47.347656 C 39.753906 47.011719 40.339844 46.179688 40.398438 44.8125 C 40.394531 44.800781 40.394531 44.789062 40.394531 44.777344 L 40.394531 31.5 C 40.394531 31.105469 40.71875 30.78125 41.113281 30.78125 Z M 59.640625 30.78125 L 60.542969 30.78125 C 60.941406 30.78125 61.265625 31.105469 61.265625 31.5 L 61.265625 48.234375 C 61.265625 48.632812 60.941406 48.957031 60.542969 48.957031 L 38.453125 48.957031 C 37.882812 48.957031 37.453125 48.902344 36.925781 48.628906 C 35.941406 48.117188 35.21875 47.046875 35.265625 45.453125 L 35.261719 45.453125 L 35.261719 25.515625 C 35.261719 25.117188 35.585938 24.792969 35.984375 24.792969 L 43.136719 24.792969 C 43.335938 24.792969 43.515625 24.875 43.648438 25.007812 L 45.683594 27.042969 L 58.921875 27.042969 C 59.320312 27.042969 59.640625 27.363281 59.640625 27.765625 Z M 41.003906 47.515625 L 59.824219 47.515625 L 59.824219 32.222656 L 41.835938 32.222656 L 41.835938 44.777344 C 41.835938 44.804688 41.835938 44.835938 41.828125 44.863281 C 41.789062 45.976562 41.472656 46.859375 41.003906 47.515625 Z M 15.054688 32.394531 C 19.367188 34.4375 24.34375 34.4375 28.660156 32.394531 L 28.660156 28.113281 C 25.402344 30.347656 18.3125 30.347656 15.054688 28.113281 Z M 28.660156 33.972656 C 24.304688 35.832031 19.40625 35.832031 15.054688 33.972656 L 15.054688 38.152344 C 19.367188 40.195312 24.34375 40.195312 28.660156 38.152344 Z M 15.054688 44.554688 C 19.367188 46.601562 24.34375 46.601562 28.660156 44.554688 L 28.660156 39.730469 C 24.304688 41.589844 19.40625 41.589844 15.054688 39.730469 Z M 28.660156 46.132812 C 24.304688 47.996094 19.40625 47.996094 15.054688 46.132812 L 15.054688 48.726562 C 15.054688 50.097656 16.75 51.011719 18.921875 51.449219 C 20.769531 51.816406 22.945312 51.816406 24.792969 51.449219 C 26.964844 51.011719 28.660156 50.097656 28.660156 48.726562 Z M 21.859375 21.527344 C 24.0625 21.527344 26.078125 21.9375 27.546875 22.59375 C 29.195312 23.328125 30.210938 24.410156 30.210938 25.660156 C 30.210938 25.902344 30.171875 26.140625 30.097656 26.367188 L 30.097656 48.726562 C 30.097656 50.929688 27.894531 52.296875 25.074219 52.863281 C 23.039062 53.273438 20.675781 53.273438 18.640625 52.863281 C 15.820312 52.296875 13.617188 50.929688 13.617188 48.726562 L 13.617188 26.367188 C 13.542969 26.140625 13.503906 25.902344 13.503906 25.660156 C 13.503906 24.410156 14.523438 23.328125 16.167969 22.59375 C 17.636719 21.9375 19.652344 21.527344 21.859375 21.527344 Z M 26.960938 23.902344 C 24.175781 22.660156 19.542969 22.660156 16.753906 23.902344 C 14.226562 25.035156 14.476562 26.398438 16.753906 27.414062 C 19.542969 28.660156 24.175781 28.660156 26.960938 27.414062 C 29.238281 26.398438 29.488281 25.035156 26.960938 23.902344 Z M 26.960938 23.902344 " fill-opacity="1" fill-rule="nonzero"/></g></svg>